<svg width="53" height="37" viewBox="0 0 53 37" fill="none" xmlns="http://www.w3.org/2000/svg">
<path d="M51.8284 5.77097C51.5244 4.65554 50.9315 3.63863 50.1086 2.82151C49.2857 2.0044 48.2615 1.41558 47.1382 1.1137C43.0255 0 26.4733 0 26.4733 0C26.4733 0 9.9203 0.033711 5.80762 1.14741C4.68422 1.44931 3.66007 2.03816 2.83716 2.85531C2.01426 3.67247 1.4213 4.68942 1.11735 5.80489C-0.126641 13.0606 -0.609208 24.1166 1.15151 31.0821C1.45549 32.1975 2.04846 33.2144 2.87137 34.0315C3.69427 34.8486 4.7184 35.4375 5.84178 35.7393C9.95446 36.853 26.507 36.853 26.507 36.853C26.507 36.853 43.0594 36.853 47.1719 35.7393C48.2953 35.4375 49.3195 34.8487 50.1424 34.0316C50.9654 33.2144 51.5584 32.1975 51.8624 31.0821C53.1745 23.8161 53.5788 12.7669 51.8284 5.77097Z" fill="#FF0000"/>
<path d="M21.2046 26.3235L34.9359 18.4265L21.2046 10.5294V26.3235Z" fill="white"/>
</svg>
