<svg width="41" height="41" viewBox="0 0 41 41" fill="none" xmlns="http://www.w3.org/2000/svg">
<path d="M14.8958 29.7917C10.7326 29.7917 7.20958 28.3494 4.32667 25.465C1.44375 22.5806 0.00152899 19.0575 1.21252e-06 14.8958C-0.00152657 10.7342 1.4407 7.21111 4.32667 4.32667C7.21264 1.44222 10.7357 0 14.8958 0C19.056 0 22.5798 1.44222 25.4673 4.32667C28.3548 7.21111 29.7963 10.7342 29.7917 14.8958C29.7917 16.5764 29.5243 18.1615 28.9896 19.651C28.4549 21.1406 27.7292 22.4583 26.8125 23.6042L39.6458 36.4375C40.066 36.8576 40.276 37.3924 40.276 38.0417C40.276 38.691 40.066 39.2257 39.6458 39.6458C39.2257 40.066 38.691 40.276 38.0417 40.276C37.3924 40.276 36.8576 40.066 36.4375 39.6458L23.6042 26.8125C22.4583 27.7292 21.1406 28.4549 19.651 28.9896C18.1615 29.5243 16.5764 29.7917 14.8958 29.7917ZM14.8958 25.2083C17.7604 25.2083 20.1957 24.2061 22.2017 22.2017C24.2076 20.1972 25.2099 17.7619 25.2083 14.8958C25.2068 12.0297 24.2046 9.59521 22.2017 7.59229C20.1988 5.58938 17.7635 4.58639 14.8958 4.58333C12.0282 4.58028 9.59368 5.58326 7.59229 7.59229C5.5909 9.60132 4.58792 12.0358 4.58333 14.8958C4.57875 17.7558 5.58174 20.1911 7.59229 22.2017C9.60285 24.2122 12.0374 25.2144 14.8958 25.2083Z" fill="#97979B"/>
</svg>
